<svg version="1.1" id="Layer_1" xmlns="http://www.w3.org/2000/svg" xmlns:xlink="http://www.w3.org/1999/xlink" x="0px" y="0px"
	 width="100%" viewBox="0 0 640 142" enable-background="new 0 0 640 142" xml:space="preserve">
<path fill="#FFFFFF" opacity="1.000000" stroke="none" 
	d="
M641.000000,100.000000 
	C641.000000,114.321564 641.000000,128.643127 641.000000,143.000000 
	C477.979095,143.000000 314.958221,143.000000 151.568436,142.657898 
	C152.682114,139.801620 154.253372,137.334885 155.629333,134.763657 
	C158.773651,128.888031 163.277802,123.214661 164.366669,116.960678 
	C165.024673,113.181297 160.347229,108.455360 158.016312,104.182419 
	C157.161346,102.615105 156.111801,101.154846 155.233139,99.599365 
	C146.685547,84.467926 138.216888,69.291557 129.604233,54.197319 
	C119.465752,36.428970 109.206749,18.729393 99.000000,0.999999 
	C279.542877,1.000000 460.085785,1.000000 641.000000,1.000000 
	C641.000000,33.019936 641.000000,65.041313 640.660278,97.443016 
	C636.305725,92.142067 632.241943,86.494576 628.286926,80.771957 
	C621.525879,70.989342 621.510193,70.938789 628.159485,61.367687 
	C632.073486,55.733826 636.154724,50.216160 640.363708,44.364086 
	C628.098694,43.246010 628.101562,43.247944 621.954102,52.284981 
	C621.584900,52.827751 621.106384,53.295242 620.690063,53.806992 
	C613.927185,62.120335 613.375977,62.421566 608.165527,52.869057 
	C603.808960,44.882034 598.217834,41.216011 589.259460,43.031658 
	C589.001099,43.084023 588.770630,43.274166 588.136108,43.602264 
	C593.874878,51.699764 599.424011,59.825436 605.328674,67.683998 
	C607.136230,70.089584 607.435364,71.567947 605.567627,74.092125 
	C599.352966,82.491135 593.433533,91.108620 587.148071,100.000000 
	C588.922791,100.000000 590.252258,99.820892 591.517578,100.030083 
	C598.033020,101.107315 602.220398,98.692406 605.251831,92.649498 
	C607.547119,88.074280 611.258057,84.209259 614.545654,79.747833 
	C616.650269,82.957352 618.480530,85.435844 619.983765,88.098923 
	C624.621704,96.315826 630.149170,102.816788 641.000000,100.000000 
M458.000000,74.541420 
	C458.000000,71.045670 458.000000,67.549919 458.000000,64.054161 
	C458.465546,63.959995 458.931091,63.865822 459.396637,63.771652 
	C464.662201,71.535019 469.927795,79.298386 475.404144,87.372543 
	C481.290497,78.567886 486.731384,70.429512 492.977051,61.087360 
	C492.977051,74.879875 492.977051,87.234688 492.977051,99.765564 
	C496.826385,99.765564 500.223328,99.765564 503.748352,99.765564 
	C503.748352,80.799019 503.748352,62.067654 503.748352,43.000000 
	C501.702148,43.000000 499.865051,43.237640 498.112488,42.953682 
	C493.570892,42.217854 491.053558,44.178425 488.866150,48.119926 
	C485.649689,53.915768 481.579346,59.231220 478.063171,64.870056 
	C476.331909,67.646355 474.858490,67.998367 473.021484,65.145538 
	C471.354462,62.556664 469.761932,59.917858 468.035492,57.369549 
	C463.173370,50.192856 460.541412,39.884159 448.205688,43.063812 
	C447.910767,43.139828 447.647064,43.337063 447.258118,43.533722 
	C447.258118,62.211327 447.258118,80.942429 447.258118,99.719254 
	C450.920715,99.719254 454.318848,99.719254 458.000000,99.719254 
	C458.000000,91.471550 458.000000,83.501450 458.000000,74.541420 
M580.009033,77.461777 
	C580.008911,73.474625 580.554260,69.398163 579.918396,65.515091 
	C576.292786,43.371380 550.836548,36.240635 534.259705,46.247646 
	C523.266846,52.883755 517.716248,66.065643 521.192932,79.186157 
	C523.394958,87.496063 527.869934,94.211617 536.270630,98.238800 
	C541.639160,100.812416 546.909729,100.929962 552.452759,101.013985 
	C565.581238,101.212997 577.343628,91.645714 580.009033,77.461777 
M427.598572,85.910339 
	C428.732361,81.733856 430.602478,77.604225 430.871674,73.372742 
	C431.995636,55.704178 419.087219,41.037731 399.460083,41.964649 
	C377.593445,42.997341 367.204407,60.925915 371.770630,80.081062 
	C374.572601,91.835159 382.960144,99.294563 394.971802,100.824684 
	C408.189392,102.508430 420.025360,99.417656 427.598572,85.910339 
M235.444504,81.952103 
	C230.793533,71.304825 226.108444,60.672279 221.502655,50.005493 
	C217.976730,41.839607 218.021240,41.817753 209.213669,42.038383 
	C208.896713,42.046329 208.583649,42.209946 208.158646,42.332859 
	C199.823563,61.384422 191.460938,80.498955 182.929214,99.999969 
	C186.281128,99.999969 188.792984,99.830627 191.271591,100.045189 
	C194.027496,100.283752 195.399933,99.335121 196.086304,96.561363 
	C196.659561,94.244698 197.771881,91.979424 199.055679,89.951012 
	C199.838821,88.713623 201.367828,87.179794 202.614288,87.131447 
	C209.600708,86.860481 216.607193,86.879288 223.596130,87.115852 
	C224.826050,87.157494 226.504059,88.437233 227.112686,89.597572 
	C228.820923,92.854271 230.078583,96.347298 231.521851,99.765808 
	C235.249527,99.765808 239.008209,99.765808 243.363098,99.765808 
	C240.770859,93.755943 238.356003,88.157318 235.444504,81.952103 
M294.900391,96.606346 
	C296.599091,94.419479 298.495422,92.356300 299.957062,90.021042 
	C303.445709,84.447205 303.046967,78.144897 303.013550,71.918900 
	C302.962067,62.327759 303.000000,52.736137 303.000000,43.365250 
	C298.917328,43.365250 295.516998,43.365250 292.000000,43.365250 
	C292.000000,54.888947 292.045227,66.048012 291.985321,77.206505 
	C291.939545,85.735786 286.614014,91.028809 278.276917,90.999992 
	C270.310608,90.972458 265.009094,85.503548 265.002319,77.278931 
	C264.993011,65.991440 265.000000,54.703938 265.000000,43.234894 
	C261.173767,43.234894 257.776306,43.234894 254.001968,43.234894 
	C254.001968,56.592793 253.670029,69.733177 254.221375,82.836395 
	C254.370392,86.377640 256.785400,90.076279 258.867249,93.237053 
	C265.687317,103.591698 285.519653,102.968399 294.900391,96.606346 
M325.535889,43.000000 
	C322.427856,43.000000 319.319794,43.000000 316.322937,43.000000 
	C316.322937,46.668823 316.322937,49.736671 316.322937,53.239864 
	C322.381378,53.239864 328.123749,53.239864 334.284363,53.239864 
	C334.284363,69.096237 334.284363,84.502701 334.284363,99.787674 
	C338.016541,99.787674 341.302368,99.787674 345.024780,99.787674 
	C345.024780,84.178970 345.024780,68.774933 345.024780,52.931995 
	C351.204590,52.931995 356.952209,52.931995 362.718567,52.931995 
	C362.718567,49.411991 362.718567,46.345783 362.718567,43.000000 
	C350.467560,43.000000 338.496033,43.000000 325.535889,43.000000 
z"/>
<path fill="#009CC9" opacity="1.000000" stroke="none" 
	d="
M98.531342,0.999999 
	C109.206749,18.729393 119.465752,36.428970 129.604233,54.197319 
	C138.216888,69.291557 146.685547,84.467926 155.233139,99.599365 
	C156.111801,101.154846 157.161346,102.615105 158.016312,104.182419 
	C160.347229,108.455360 165.024673,113.181297 164.366669,116.960678 
	C163.277802,123.214661 158.773651,128.888031 155.629333,134.763657 
	C154.253372,137.334885 152.682114,139.801620 151.099777,142.657898 
	C106.312439,143.000000 61.624878,143.000000 16.383505,142.795166 
	C15.670215,142.328369 15.449204,142.137756 15.089741,141.661057 
	C13.205978,138.249985 11.576762,135.072083 9.548464,132.173416 
	C6.862324,128.334641 3.864096,124.714249 0.999998,121.000000 
	C1.000000,119.285645 1.000000,117.571281 1.338083,115.328949 
	C8.145716,103.745354 14.581971,92.670097 21.091442,81.638046 
	C36.764935,55.075092 52.472710,28.532364 68.355545,1.865252 
	C68.773018,1.546023 68.924873,1.296347 69.000000,1.000000 
	C78.687561,1.000000 88.375122,1.000000 98.531342,0.999999 
M120.071602,121.975815 
	C85.274109,121.975815 50.476620,121.975815 15.619006,121.975815 
	C18.635622,131.143280 21.043522,133.000000 29.738380,133.000000 
	C64.384682,133.000015 99.030975,133.003357 133.677277,132.990036 
	C135.403595,132.989365 137.129868,132.843857 139.330841,132.744324 
	C138.705444,131.593231 138.414047,131.047180 138.113983,130.505951 
	C128.092209,112.428932 118.094597,94.338440 108.034660,76.282677 
	C104.081177,69.186882 99.988007,62.168903 95.911102,54.492836 
	C95.504074,54.154282 95.097054,53.815731 94.690033,53.477180 
	C94.473869,54.023293 94.257706,54.569401 93.768410,55.742783 
	C92.790054,57.495514 91.811699,59.248241 90.181435,61.128616 
	C87.844261,64.540558 90.719269,65.598000 92.987839,67.728043 
	C94.206772,70.196152 95.345406,72.707848 96.657761,75.125237 
	C104.764252,90.057549 112.909866,104.968628 121.012878,120.535660 
	C121.008308,120.968422 121.003746,121.401176 120.071602,121.975815 
M74.478111,30.039413 
	C78.553413,23.486490 82.628723,16.933565 86.940102,10.001047 
	C83.409035,10.001047 80.561134,9.821051 77.754280,10.082248 
	C76.483086,10.200541 74.744690,10.862476 74.150826,11.842755 
	C67.491196,22.835733 61.004032,33.933365 54.489006,45.013737 
	C44.510990,61.983776 34.528957,78.951508 24.588503,95.943550 
	C21.380325,101.427544 18.297632,106.984947 14.924382,112.918915 
	C45.718235,112.918915 75.531517,112.918915 105.951332,112.918915 
	C103.989128,109.405800 102.204262,106.210197 100.210320,102.640274 
	C77.179161,102.640274 54.166164,102.640274 30.542393,102.640274 
	C38.178032,90.251350 45.501659,78.546234 52.643543,66.731270 
	C59.877060,54.764709 66.930847,42.689507 74.478111,30.039413 
M103.524773,29.042089 
	C100.933563,24.737774 98.342346,20.433458 95.359810,15.479112 
	C79.636063,41.394890 64.191101,66.851166 48.234016,93.151527 
	C53.376980,92.222595 57.862335,95.074707 61.067329,89.612106 
	C69.374504,75.453362 78.162910,61.576515 86.790535,47.606480 
	C89.386917,43.402355 92.086143,39.261742 95.655746,33.649532 
	C113.455635,65.502678 130.427536,95.874130 148.022232,127.360085 
	C149.750778,121.767181 155.212982,118.950317 151.648056,113.054405 
	C144.500412,101.233162 137.625793,89.244156 130.781464,77.242851 
	C121.761513,61.426674 112.879143,45.532032 103.524773,29.042089 
M94.477379,92.114334 
	C91.017418,85.692207 87.557465,79.270073 83.615578,71.953415 
	C79.070587,79.433044 75.104401,85.960152 70.896393,92.885216 
	C79.331497,92.885216 86.817757,92.885216 94.477379,92.114334 
z"/>
<path fill="#FFFFFF" opacity="1.000000" stroke="none" 
	d="
M68.166656,1.981476 
	C52.472710,28.532364 36.764935,55.075092 21.091442,81.638046 
	C14.581971,92.670097 8.145716,103.745354 1.338083,114.900482 
	C1.000000,77.092056 1.000000,39.184120 1.000000,1.000000 
	C23.020124,1.000000 45.041405,1.000000 67.543694,1.250347 
	C68.072021,1.660954 68.119339,1.821215 68.166656,1.981476 
z"/>
<path fill="#383838" opacity="1.000000" stroke="none" 
	d="
M641.000000,99.666672 
	C630.149170,102.816788 624.621704,96.315826 619.983765,88.098923 
	C618.480530,85.435844 616.650269,82.957352 614.545654,79.747833 
	C611.258057,84.209259 607.547119,88.074280 605.251831,92.649498 
	C602.220398,98.692406 598.033020,101.107315 591.517578,100.030083 
	C590.252258,99.820892 588.922791,100.000000 587.148071,100.000000 
	C593.433533,91.108620 599.352966,82.491135 605.567627,74.092125 
	C607.435364,71.567947 607.136230,70.089584 605.328674,67.683998 
	C599.424011,59.825436 593.874878,51.699764 588.136108,43.602264 
	C588.770630,43.274166 589.001099,43.084023 589.259460,43.031658 
	C598.217834,41.216011 603.808960,44.882034 608.165527,52.869057 
	C613.375977,62.421566 613.927185,62.120335 620.690063,53.806992 
	C621.106384,53.295242 621.584900,52.827751 621.954102,52.284981 
	C628.101562,43.247944 628.098694,43.246010 640.363708,44.364086 
	C636.154724,50.216160 632.073486,55.733826 628.159485,61.367687 
	C621.510193,70.938789 621.525879,70.989342 628.286926,80.771957 
	C632.241943,86.494576 636.305725,92.142067 640.660278,97.911674 
	C641.000000,98.444443 641.000000,98.888893 641.000000,99.666672 
z"/>
<path fill="#FFFFFF" opacity="1.000000" stroke="none" 
	d="
M0.999998,121.468781 
	C3.864096,124.714249 6.862324,128.334641 9.548464,132.173416 
	C11.576762,135.072083 13.205978,138.249985 15.018749,141.901443 
	C15.016454,142.666199 15.008227,142.833099 15.000000,143.000000 
	C10.390853,143.000000 5.781706,143.000000 1.000000,143.000000 
	C1.000000,135.979874 1.000000,128.958710 0.999998,121.468781 
z"/>
<path fill="#009CC9" opacity="1.000000" stroke="none" 
	d="
M68.355545,1.865251 
	C68.119339,1.821215 68.072021,1.660954 68.012352,1.250347 
	C68.000000,1.000000 68.500000,1.000000 68.750000,1.000000 
	C68.924873,1.296347 68.773018,1.546023 68.355545,1.865251 
z"/>
<path fill="#009CC9" opacity="1.000000" stroke="none" 
	d="
M15.250000,143.000000 
	C15.008227,142.833099 15.016454,142.666199 15.095673,142.258896 
	C15.449204,142.137756 15.670215,142.328369 15.914846,142.795166 
	C16.000000,143.000000 15.500000,143.000000 15.250000,143.000000 
z"/>
<path fill="#383838" opacity="1.000000" stroke="none" 
	d="
M458.000000,75.036377 
	C458.000000,83.501450 458.000000,91.471550 458.000000,99.719254 
	C454.318848,99.719254 450.920715,99.719254 447.258118,99.719254 
	C447.258118,80.942429 447.258118,62.211327 447.258118,43.533722 
	C447.647064,43.337063 447.910767,43.139828 448.205688,43.063812 
	C460.541412,39.884159 463.173370,50.192856 468.035492,57.369549 
	C469.761932,59.917858 471.354462,62.556664 473.021484,65.145538 
	C474.858490,67.998367 476.331909,67.646355 478.063171,64.870056 
	C481.579346,59.231220 485.649689,53.915768 488.866150,48.119926 
	C491.053558,44.178425 493.570892,42.217854 498.112488,42.953682 
	C499.865051,43.237640 501.702148,43.000000 503.748352,43.000000 
	C503.748352,62.067654 503.748352,80.799019 503.748352,99.765564 
	C500.223328,99.765564 496.826385,99.765564 492.977051,99.765564 
	C492.977051,87.234688 492.977051,74.879875 492.977051,61.087360 
	C486.731384,70.429512 481.290497,78.567886 475.404144,87.372543 
	C469.927795,79.298386 464.662201,71.535019 459.396637,63.771652 
	C458.931091,63.865822 458.465546,63.959995 458.000000,64.054161 
	C458.000000,67.549919 458.000000,71.045670 458.000000,75.036377 
z"/>
<path fill="#383838" opacity="1.000000" stroke="none" 
	d="
M580.004883,77.892784 
	C577.343628,91.645714 565.581238,101.212997 552.452759,101.013985 
	C546.909729,100.929962 541.639160,100.812416 536.270630,98.238800 
	C527.869934,94.211617 523.394958,87.496063 521.192932,79.186157 
	C517.716248,66.065643 523.266846,52.883755 534.259705,46.247646 
	C550.836548,36.240635 576.292786,43.371380 579.918396,65.515091 
	C580.554260,69.398163 580.008911,73.474625 580.004883,77.892784 
M533.872803,63.608475 
	C530.353638,72.523323 531.568665,81.119911 538.023865,86.349861 
	C544.701599,91.760139 552.430359,93.370094 561.474976,87.815651 
	C567.053894,84.389572 571.114746,72.512924 568.652954,66.232002 
	C565.617249,58.486809 560.272400,52.887943 551.649841,52.109863 
	C543.452881,51.370182 537.779602,55.769691 533.872803,63.608475 
z"/>
<path fill="#383838" opacity="1.000000" stroke="none" 
	d="
M427.336426,86.195702 
	C420.025360,99.417656 408.189392,102.508430 394.971802,100.824684 
	C382.960144,99.294563 374.572601,91.835159 371.770630,80.081062 
	C367.204407,60.925915 377.593445,42.997341 399.460083,41.964649 
	C419.087219,41.037731 431.995636,55.704178 430.871674,73.372742 
	C430.602478,77.604225 428.732361,81.733856 427.336426,86.195702 
M414.012909,57.522778 
	C404.836639,50.818085 397.271637,50.192055 389.971802,55.533298 
	C383.203491,60.485619 380.091461,69.912277 383.073914,77.783508 
	C385.760956,84.875038 390.496399,89.951927 398.507660,90.996368 
	C406.844696,92.083267 414.881653,86.799232 417.465942,80.145630 
	C420.582733,72.121101 419.251801,64.924263 414.012909,57.522778 
z"/>
<path fill="#383838" opacity="1.000000" stroke="none" 
	d="
M235.692825,82.255402 
	C238.356003,88.157318 240.770859,93.755943 243.363098,99.765808 
	C239.008209,99.765808 235.249527,99.765808 231.521851,99.765808 
	C230.078583,96.347298 228.820923,92.854271 227.112686,89.597572 
	C226.504059,88.437233 224.826050,87.157494 223.596130,87.115852 
	C216.607193,86.879288 209.600708,86.860481 202.614288,87.131447 
	C201.367828,87.179794 199.838821,88.713623 199.055679,89.951012 
	C197.771881,91.979424 196.659561,94.244698 196.086304,96.561363 
	C195.399933,99.335121 194.027496,100.283752 191.271591,100.045189 
	C188.792984,99.830627 186.281128,99.999969 182.929214,99.999969 
	C191.460938,80.498955 199.823563,61.384422 208.158646,42.332859 
	C208.583649,42.209946 208.896713,42.046329 209.213669,42.038383 
	C218.021240,41.817753 217.976730,41.839607 221.502655,50.005493 
	C226.108444,60.672279 230.793533,71.304825 235.692825,82.255402 
M211.994125,59.532928 
	C209.420959,65.252800 206.847778,70.972664 204.303635,76.628006 
	C210.190323,76.628006 215.537262,76.628006 221.183594,76.628006 
	C220.705048,74.824089 220.583710,73.316734 219.930542,72.093315 
	C217.584854,67.699570 215.059418,63.401794 211.994125,59.532928 
z"/>
<path fill="#383838" opacity="1.000000" stroke="none" 
	d="
M294.569092,96.786781 
	C285.519653,102.968399 265.687317,103.591698 258.867249,93.237053 
	C256.785400,90.076279 254.370392,86.377640 254.221375,82.836395 
	C253.670029,69.733177 254.001968,56.592793 254.001968,43.234894 
	C257.776306,43.234894 261.173767,43.234894 265.000000,43.234894 
	C265.000000,54.703938 264.993011,65.991440 265.002319,77.278931 
	C265.009094,85.503548 270.310608,90.972458 278.276917,90.999992 
	C286.614014,91.028809 291.939545,85.735786 291.985321,77.206505 
	C292.045227,66.048012 292.000000,54.888947 292.000000,43.365250 
	C295.516998,43.365250 298.917328,43.365250 303.000000,43.365250 
	C303.000000,52.736137 302.962067,62.327759 303.013550,71.918900 
	C303.046967,78.144897 303.445709,84.447205 299.957062,90.021042 
	C298.495422,92.356300 296.599091,94.419479 294.569092,96.786781 
z"/>
<path fill="#383838" opacity="1.000000" stroke="none" 
	d="
M326.030182,43.000000 
	C338.496033,43.000000 350.467560,43.000000 362.718567,43.000000 
	C362.718567,46.345783 362.718567,49.411991 362.718567,52.931995 
	C356.952209,52.931995 351.204590,52.931995 345.024780,52.931995 
	C345.024780,68.774933 345.024780,84.178970 345.024780,99.787674 
	C341.302368,99.787674 338.016541,99.787674 334.284363,99.787674 
	C334.284363,84.502701 334.284363,69.096237 334.284363,53.239864 
	C328.123749,53.239864 322.381378,53.239864 316.322937,53.239864 
	C316.322937,49.736671 316.322937,46.668823 316.322937,43.000000 
	C319.319794,43.000000 322.427856,43.000000 326.030182,43.000000 
z"/>
<path fill="#FFFFFF" opacity="1.000000" stroke="none" 
	d="
M121.042480,119.886757 
	C112.909866,104.968628 104.764252,90.057549 96.657761,75.125237 
	C95.345406,72.707848 94.206772,70.196152 92.975296,67.003357 
	C92.252945,64.519440 91.543144,62.760204 90.833344,61.000973 
	C91.811699,59.248241 92.790054,57.495514 94.223267,55.381271 
	C95.104897,55.051670 95.531670,55.083580 95.958443,55.115486 
	C99.988007,62.168903 104.081177,69.186882 108.034660,76.282677 
	C118.094597,94.338440 128.092209,112.428932 138.113983,130.505951 
	C138.414047,131.047180 138.705444,131.593231 139.330841,132.744324 
	C137.129868,132.843857 135.403595,132.989365 133.677277,132.990036 
	C99.030975,133.003357 64.384682,133.000015 29.738380,133.000000 
	C21.043522,133.000000 18.635622,131.143280 15.619006,121.975815 
	C50.476620,121.975815 85.274109,121.975815 120.843567,121.892639 
	C121.424515,121.168564 121.233498,120.527657 121.042480,119.886757 
z"/>
<path fill="#FFFFFF" opacity="1.000000" stroke="none" 
	d="
M74.270737,30.350651 
	C66.930847,42.689507 59.877060,54.764709 52.643543,66.731270 
	C45.501659,78.546234 38.178032,90.251350 30.542393,102.640274 
	C54.166164,102.640274 77.179161,102.640274 100.210320,102.640274 
	C102.204262,106.210197 103.989128,109.405800 105.951332,112.918915 
	C75.531517,112.918915 45.718235,112.918915 14.924382,112.918915 
	C18.297632,106.984947 21.380325,101.427544 24.588503,95.943550 
	C34.528957,78.951508 44.510990,61.983776 54.489006,45.013737 
	C61.004032,33.933365 67.491196,22.835733 74.150826,11.842755 
	C74.744690,10.862476 76.483086,10.200541 77.754280,10.082248 
	C80.561134,9.821051 83.409035,10.001047 86.940102,10.001047 
	C82.628723,16.933565 78.553413,23.486490 74.270737,30.350651 
z"/>
<path fill="#FFFFFF" opacity="1.000000" stroke="none" 
	d="
M103.731194,29.356607 
	C112.879143,45.532032 121.761513,61.426674 130.781464,77.242851 
	C137.625793,89.244156 144.500412,101.233162 151.648056,113.054405 
	C155.212982,118.950317 149.750778,121.767181 148.022232,127.360085 
	C130.427536,95.874130 113.455635,65.502678 95.655746,33.649532 
	C92.086143,39.261742 89.386917,43.402355 86.790535,47.606480 
	C78.162910,61.576515 69.374504,75.453362 61.067329,89.612106 
	C57.862335,95.074707 53.376980,92.222595 48.234016,93.151527 
	C64.191101,66.851166 79.636063,41.394890 95.359810,15.479112 
	C98.342346,20.433458 100.933563,24.737774 103.731194,29.356607 
M95.132553,34.549553 
	C95.315514,34.627407 95.498482,34.705257 95.681442,34.783112 
	C95.631187,34.580059 95.580925,34.377010 95.132553,34.549553 
z"/>
<path fill="#FFFFFF" opacity="1.000000" stroke="none" 
	d="
M94.390701,92.499771 
	C86.817757,92.885216 79.331497,92.885216 70.896393,92.885216 
	C75.104401,85.960152 79.070587,79.433044 83.615578,71.953415 
	C87.557465,79.270073 91.017418,85.692207 94.390701,92.499771 
z"/>
<path fill="#009CC9" opacity="1.000000" stroke="none" 
	d="
M90.507385,61.064796 
	C91.543144,62.760204 92.252945,64.519440 92.898041,66.638924 
	C90.719269,65.598000 87.844261,64.540558 90.507385,61.064796 
z"/>
<path fill="#009CC9" opacity="1.000000" stroke="none" 
	d="
M95.934769,54.804161 
	C95.531670,55.083580 95.104897,55.051670 94.359833,55.067635 
	C94.257706,54.569401 94.473869,54.023293 94.690033,53.477180 
	C95.097054,53.815731 95.504074,54.154282 95.934769,54.804161 
z"/>
<path fill="#009CC9" opacity="1.000000" stroke="none" 
	d="
M121.027679,120.211212 
	C121.233498,120.527657 121.424515,121.168564 121.307358,121.821701 
	C121.003746,121.401176 121.008308,120.968422 121.027679,120.211212 
z"/>
<path fill="#FFFFFF" opacity="1.000000" stroke="none" 
	d="
M533.946838,63.221184 
	C537.779602,55.769691 543.452881,51.370182 551.649841,52.109863 
	C560.272400,52.887943 565.617249,58.486809 568.652954,66.232002 
	C571.114746,72.512924 567.053894,84.389572 561.474976,87.815651 
	C552.430359,93.370094 544.701599,91.760139 538.023865,86.349861 
	C531.568665,81.119911 530.353638,72.523323 533.946838,63.221184 
z"/>
<path fill="#FFFFFF" opacity="1.000000" stroke="none" 
	d="
M414.282135,57.787727 
	C419.251801,64.924263 420.582733,72.121101 417.465942,80.145630 
	C414.881653,86.799232 406.844696,92.083267 398.507660,90.996368 
	C390.496399,89.951927 385.760956,84.875038 383.073914,77.783508 
	C380.091461,69.912277 383.203491,60.485619 389.971802,55.533298 
	C397.271637,50.192055 404.836639,50.818085 414.282135,57.787727 
z"/>
<path fill="#FFFFFF" opacity="1.000000" stroke="none" 
	d="
M212.298035,59.300335 
	C215.059418,63.401794 217.584854,67.699570 219.930542,72.093315 
	C220.583710,73.316734 220.705048,74.824089 221.183594,76.628006 
	C215.537262,76.628006 210.190323,76.628006 204.303635,76.628006 
	C206.847778,70.972664 209.420959,65.252800 212.298035,59.300335 
z"/>
<path fill="#009CC9" opacity="1.000000" stroke="none" 
	d="
M95.331604,34.361755 
	C95.580925,34.377010 95.631187,34.580059 95.681442,34.783112 
	C95.498482,34.705257 95.315514,34.627407 95.331604,34.361755 
z"/>
</svg>