<svg version="1.1" id="Layer_1" xmlns="http://www.w3.org/2000/svg" xmlns:xlink="http://www.w3.org/1999/xlink" x="0px" y="0px"
	 width="100%" viewBox="0 0 640 142" enable-background="new 0 0 640 142" xml:space="preserve">
<path fill="#FFFFFF" opacity="1.000000" stroke="none" 
	d="
M99.000000,0.999999 
	C279.600250,1.000000 460.200470,1.000000 640.900391,1.000000 
	C640.900391,48.249310 640.900391,95.498901 640.900391,143.000000 
	C477.977448,143.000000 314.954742,143.000000 151.565811,142.657898 
	C152.682114,139.801620 154.253372,137.334885 155.629333,134.763657 
	C158.773651,128.888031 163.277802,123.214661 164.366669,116.960678 
	C165.024673,113.181297 160.347229,108.455360 158.016312,104.182419 
	C157.161346,102.615105 156.111801,101.154846 155.233139,99.599365 
	C146.685547,84.467926 138.216888,69.291557 129.604233,54.197319 
	C119.465752,36.428970 109.206749,18.729393 99.000000,0.999999 
z"/>
<path fill="#009CC9" opacity="1.000000" stroke="none" 
	d="
M98.531342,0.999999 
	C109.206749,18.729393 119.465752,36.428970 129.604233,54.197319 
	C138.216888,69.291557 146.685547,84.467926 155.233139,99.599365 
	C156.111801,101.154846 157.161346,102.615105 158.016312,104.182419 
	C160.347229,108.455360 165.024673,113.181297 164.366669,116.960678 
	C163.277802,123.214661 158.773651,128.888031 155.629333,134.763657 
	C154.253372,137.334885 152.682114,139.801620 151.099777,142.657898 
	C106.312439,143.000000 61.624878,143.000000 16.383505,142.795166 
	C15.670215,142.328369 15.449204,142.137756 15.089741,141.661057 
	C13.205978,138.249985 11.576762,135.072083 9.548464,132.173416 
	C6.862324,128.334641 3.864096,124.714249 0.999998,121.000000 
	C1.000000,119.285645 1.000000,117.571281 1.338083,115.328949 
	C8.145716,103.745354 14.581971,92.670097 21.091442,81.638046 
	C36.764935,55.075092 52.472710,28.532364 68.355545,1.865252 
	C68.773018,1.546023 68.924873,1.296347 69.000000,1.000000 
	C78.687561,1.000000 88.375122,1.000000 98.531342,0.999999 
M96.994431,36.228035 
	C113.812775,66.232353 130.631134,96.236671 147.751312,126.779465 
	C150.845840,121.524658 155.213135,117.651863 151.003937,111.676292 
	C148.296448,107.832634 146.174850,103.574020 143.820984,99.483940 
	C130.589813,76.493507 117.370865,53.496029 104.140373,30.505199 
	C101.366714,25.685375 98.562057,20.883383 95.388718,15.412996 
	C79.538658,41.545368 64.152145,66.913483 48.611748,92.535316 
	C58.723705,93.732506 58.523464,93.610634 62.999184,86.257080 
	C73.312241,69.312866 83.839478,52.499012 95.503471,35.809330 
	C95.911171,35.749008 96.318878,35.688686 96.994431,36.228035 
M74.368080,11.177525 
	C68.600792,20.990728 62.846615,30.811668 57.063267,40.615398 
	C47.483112,56.855347 37.841122,73.058998 28.312054,89.328812 
	C23.815704,97.005829 19.520767,104.800819 14.958361,112.853363 
	C45.557106,112.853363 75.461792,112.853363 105.416222,112.853363 
	C102.255104,103.608124 101.454437,103.000000 92.585838,103.000000 
	C73.768860,103.000000 54.951878,103.000000 36.134899,103.000000 
	C34.452465,103.000000 32.770027,103.000000 30.384361,103.000000 
	C41.317810,85.070236 51.689632,68.178230 61.940796,51.213306 
	C70.002304,37.872108 77.914909,24.440939 86.415352,10.584082 
	C83.854362,8.192348 77.699181,8.326758 74.368080,11.177525 
M93.747581,55.766636 
	C92.857483,57.940125 90.826485,60.413109 91.302872,62.227886 
	C92.475967,66.696739 94.519188,71.013756 96.713860,75.124146 
	C104.712280,90.104340 112.916084,104.974884 121.012878,120.535660 
	C121.008308,120.968422 121.003746,121.401176 120.071602,121.975815 
	C85.274109,121.975815 50.476620,121.975815 15.619006,121.975815 
	C18.635622,131.143280 21.043522,133.000000 29.738380,133.000000 
	C64.384682,133.000015 99.030975,133.003357 133.677277,132.990036 
	C135.403595,132.989365 137.129868,132.843857 139.330841,132.744324 
	C138.705444,131.593231 138.414047,131.047180 138.113983,130.505951 
	C128.092209,112.428932 118.094597,94.338440 108.034660,76.282677 
	C104.081177,69.186882 99.988007,62.168903 95.911102,54.492836 
	C95.504074,54.154282 95.097054,53.815731 94.690033,53.477180 
	C94.473869,54.023293 94.257706,54.569401 93.747581,55.766636 
M81.909851,74.626831 
	C78.321648,80.572189 74.733452,86.517548 70.911087,92.850899 
	C79.220001,92.850899 86.793976,92.850899 94.889183,92.850899 
	C91.606400,86.652191 88.557999,80.746483 85.300789,74.958282 
	C84.943253,74.322929 83.387093,74.362083 81.909851,74.626831 
z"/>
<path fill="#FFFFFF" opacity="1.000000" stroke="none" 
	d="
M68.166656,1.981476 
	C52.472710,28.532364 36.764935,55.075092 21.091442,81.638046 
	C14.581971,92.670097 8.145716,103.745354 1.338083,114.900482 
	C1.000000,77.092056 1.000000,39.184120 1.000000,1.000000 
	C23.020124,1.000000 45.041405,1.000000 67.543694,1.250347 
	C68.072021,1.660954 68.119339,1.821215 68.166656,1.981476 
z"/>
<path fill="#FFFFFF" opacity="1.000000" stroke="none" 
	d="
M0.999998,121.468781 
	C3.864096,124.714249 6.862324,128.334641 9.548464,132.173416 
	C11.576762,135.072083 13.205978,138.249985 15.018749,141.901443 
	C15.016454,142.666199 15.008227,142.833099 15.000000,143.000000 
	C10.390853,143.000000 5.781706,143.000000 1.000000,143.000000 
	C1.000000,135.979874 1.000000,128.958710 0.999998,121.468781 
z"/>
<path fill="#009CC9" opacity="1.000000" stroke="none" 
	d="
M68.355545,1.865251 
	C68.119339,1.821215 68.072021,1.660954 68.012352,1.250347 
	C68.000000,1.000000 68.500000,1.000000 68.750000,1.000000 
	C68.924873,1.296347 68.773018,1.546023 68.355545,1.865251 
z"/>
<path fill="#009CC9" opacity="1.000000" stroke="none" 
	d="
M15.250000,143.000000 
	C15.008227,142.833099 15.016454,142.666199 15.095673,142.258896 
	C15.449204,142.137756 15.670215,142.328369 15.914846,142.795166 
	C16.000000,143.000000 15.500000,143.000000 15.250000,143.000000 
z"/>
<path fill="#FFFFFF" opacity="1.000000" stroke="none" 
	d="
M121.042480,119.886757 
	C112.916084,104.974884 104.712280,90.104340 96.713860,75.124146 
	C94.519188,71.013756 92.475967,66.696739 91.302872,62.227886 
	C90.826485,60.413109 92.857483,57.940125 94.212852,55.393200 
	C95.104897,55.051670 95.531670,55.083580 95.958443,55.115486 
	C99.988007,62.168903 104.081177,69.186882 108.034660,76.282677 
	C118.094597,94.338440 128.092209,112.428932 138.113983,130.505951 
	C138.414047,131.047180 138.705444,131.593231 139.330841,132.744324 
	C137.129868,132.843857 135.403595,132.989365 133.677277,132.990036 
	C99.030975,133.003357 64.384682,133.000015 29.738380,133.000000 
	C21.043522,133.000000 18.635622,131.143280 15.619006,121.975815 
	C50.476620,121.975815 85.274109,121.975815 120.843567,121.892639 
	C121.424515,121.168564 121.233498,120.527657 121.042480,119.886757 
z"/>
<path fill="#FFFFFF" opacity="1.000000" stroke="none" 
	d="
M85.893654,11.049734 
	C77.914909,24.440939 70.002304,37.872108 61.940796,51.213306 
	C51.689632,68.178230 41.317810,85.070236 30.384361,103.000000 
	C32.770027,103.000000 34.452465,103.000000 36.134899,103.000000 
	C54.951878,103.000000 73.768860,103.000000 92.585838,103.000000 
	C101.454437,103.000000 102.255104,103.608124 105.416222,112.853363 
	C75.461792,112.853363 45.557106,112.853363 14.958361,112.853363 
	C19.520767,104.800819 23.815704,97.005829 28.312054,89.328812 
	C37.841122,73.058998 47.483112,56.855347 57.063267,40.615398 
	C62.846615,30.811668 68.600792,20.990728 75.135757,11.076328 
	C79.233505,11.000000 82.563583,11.024867 85.893654,11.049734 
z"/>
<path fill="#FFFFFF" opacity="1.000000" stroke="none" 
	d="
M94.279808,35.632263 
	C83.839478,52.499012 73.312241,69.312866 62.999184,86.257080 
	C58.523464,93.610634 58.723705,93.732506 48.611748,92.535316 
	C64.152145,66.913483 79.538658,41.545368 95.388718,15.412996 
	C98.562057,20.883383 101.366714,25.685375 104.140373,30.505199 
	C117.370865,53.496029 130.589813,76.493507 143.820984,99.483940 
	C146.174850,103.574020 148.296448,107.832634 151.003937,111.676292 
	C155.213135,117.651863 150.845840,121.524658 147.751312,126.779465 
	C130.631134,96.236671 113.812775,66.232353 96.729187,35.634178 
	C95.735893,35.237637 95.007851,35.434948 94.279808,35.632263 
z"/>
<path fill="#FFFFFF" opacity="1.000000" stroke="none" 
	d="
M82.148361,74.357620 
	C83.387093,74.362083 84.943253,74.322929 85.300789,74.958282 
	C88.557999,80.746483 91.606400,86.652191 94.889183,92.850899 
	C86.793976,92.850899 79.220001,92.850899 70.911087,92.850899 
	C74.733452,86.517548 78.321648,80.572189 82.148361,74.357620 
z"/>
<path fill="#009CC9" opacity="1.000000" stroke="none" 
	d="
M86.154503,10.816908 
	C82.563583,11.024867 79.233505,11.000000 75.452271,10.904234 
	C77.699181,8.326758 83.854362,8.192348 86.154503,10.816908 
z"/>
<path fill="#009CC9" opacity="1.000000" stroke="none" 
	d="
M95.934769,54.804161 
	C95.531670,55.083580 95.104897,55.051670 94.359833,55.067635 
	C94.257706,54.569401 94.473869,54.023293 94.690033,53.477180 
	C95.097054,53.815731 95.504074,54.154282 95.934769,54.804161 
z"/>
<path fill="#009CC9" opacity="1.000000" stroke="none" 
	d="
M94.891640,35.720795 
	C95.007851,35.434948 95.735893,35.237637 96.595261,35.334343 
	C96.318878,35.688686 95.911171,35.749008 94.891640,35.720795 
z"/>
<path fill="#009CC9" opacity="1.000000" stroke="none" 
	d="
M121.027679,120.211212 
	C121.233498,120.527657 121.424515,121.168564 121.307358,121.821701 
	C121.003746,121.401176 121.008308,120.968422 121.027679,120.211212 
z"/>
</svg>