<?xml version="1.0" encoding="utf-8"?>
<!-- Generator: Adobe Illustrator 24.0.3, SVG Export Plug-In . SVG Version: 6.00 Build 0)  -->
<svg version="1.1" id="Layer_1" xmlns="http://www.w3.org/2000/svg" xmlns:xlink="http://www.w3.org/1999/xlink" x="0px" y="0px"
	 viewBox="0 0 360 144" style="enable-background:new 0 0 360 144;" xml:space="preserve" width="100%" height="100%">
<style type="text/css">
	.st0{fill:#FFFFFF;}
</style>
<g>
	<path class="st0" d="M136,62.4h4L150.7,87h-4.5l-2.5-5.9h-11.6l-2.5,5.9h-4.4L136,62.4z M142.1,77.3l-4.2-9.8l-4.2,9.8H142.1z"/>
	<path class="st0" d="M155.8,76.7V62.6h4.3v13.9c0,4.5,2.3,7,6.2,7c3.8,0,6.1-2.3,6.1-6.8V62.6h4.3v13.9c0,7.3-4.1,11-10.5,11
		C159.8,87.4,155.8,83.8,155.8,76.7z"/>
	<path class="st0" d="M191.2,66.6h-7.7v-4h19.8v4h-7.7V87h-4.3V66.6z"/>
	<path class="st0" d="M208,74.9L208,74.9c0-6.9,5.3-12.7,12.8-12.7c7.5,0,12.7,5.7,12.7,12.6v0.1c0,6.9-5.3,12.6-12.8,12.6
		C213.2,87.5,208,81.8,208,74.9z M229.1,74.9L229.1,74.9c0-4.8-3.5-8.8-8.3-8.8c-4.9,0-8.2,3.9-8.2,8.6v0.1c0,4.7,3.5,8.7,8.3,8.7
		C225.7,83.5,229.1,79.6,229.1,74.9z"/>
	<path class="st0" d="M240.7,62.6h4.6l7.4,11.6l7.4-11.6h4.6V87h-4.3V69.5L252.7,81h-0.1l-7.6-11.5V87h-4.2V62.6z"/>
	<path class="st0" d="M271.8,74.9L271.8,74.9c0-6.9,5.3-12.7,12.8-12.7c7.5,0,12.7,5.7,12.7,12.6v0.1c0,6.9-5.3,12.6-12.8,12.6
		S271.8,81.8,271.8,74.9z M292.9,74.9L292.9,74.9c0-4.8-3.5-8.8-8.3-8.8s-8.2,3.9-8.2,8.6v0.1c0,4.7,3.5,8.7,8.3,8.7
		C289.5,83.5,292.9,79.6,292.9,74.9z"/>
	<path class="st0" d="M310.3,74.6l-8.6-12h5.1l6.1,8.8l6.1-8.8h4.9l-8.5,11.9l8.9,12.5h-5.1l-6.4-9.3l-6.5,9.3h-4.9L310.3,74.6z"/>
</g>
<g>
	<path class="st0" d="M85.5,38.2l-1.1-1.9h-2.2h-12L36.6,93.7l-1.1,1.9l1.2,1.9l6.6,10.4h65.7h2.3l1-1.9l5.7-10.9L85.5,38.2z
		 M72.4,40h7.6L51.2,87.5l15.8,0l0,0l19.2,0l3.4,6.2H41L72.4,40z M77.2,70.8l7,12.8l-14.9,0L77.2,70.8z M45.3,104.1l-4.2-6.6H96
		l-7.5-13.8h0l-9-16.6l0.8-1.3l2.8-4.6L98,88.1l8.8,15.9H45.3z M109.9,102L93.5,72.3L83.2,53.8l-2.8,4.5L64.9,83.7l-7,0l25.3-41.9
		l30.3,53.2L109.9,102z"/>
</g>
</svg>
